<?xml version="1.0" encoding="UTF-8" standalone="no"?>
<svg
   xmlns:dc="http://purl.org/dc/elements/1.1/"
   xmlns:cc="http://creativecommons.org/ns#"
   xmlns:rdf="http://www.w3.org/1999/02/22-rdf-syntax-ns#"
   xmlns:svg="http://www.w3.org/2000/svg"
   xmlns="http://www.w3.org/2000/svg"
   xmlns:xlink="http://www.w3.org/1999/xlink"
   xmlns:sodipodi="http://sodipodi.sourceforge.net/DTD/sodipodi-0.dtd"
   xmlns:inkscape="http://www.inkscape.org/namespaces/inkscape"
   version="1.1"
   width="1000"
   height="1000"
   id="svg4676"
   sodipodi:docname="kek.svg"
   inkscape:version="0.92.4 5da689c313, 2019-01-14">
  <metadata
     id="metadata4682">
    <rdf:RDF>
      <cc:Work
         rdf:about="">
        <dc:format>image/svg+xml</dc:format>
        <dc:type
           rdf:resource="http://purl.org/dc/dcmitype/StillImage" />
      </cc:Work>
    </rdf:RDF>
  </metadata>
  <defs
     id="defs4680" />
  <sodipodi:namedview
     pagecolor="#ffffff"
     bordercolor="#666666"
     borderopacity="1"
     objecttolerance="10"
     gridtolerance="10"
     guidetolerance="10"
     inkscape:pageopacity="0"
     inkscape:pageshadow="2"
     inkscape:window-width="1920"
     inkscape:window-height="1035"
     id="namedview4678"
     showgrid="false"
     inkscape:zoom="0.56427121"
     inkscape:cx="255.90664"
     inkscape:cy="388.68914"
     inkscape:window-x="0"
     inkscape:window-y="45"
     inkscape:window-maximized="0"
     inkscape:current-layer="svg4676" />
  <g
     id="g4674"
     transform="matrix(33.427336,0,0,33.427337,98.871968,98.871956)">
    <g
       id="g4672">
      <g
         id="g4634">
        <g
           id="g4632">
          <g
             id="g4630">
            <g
               id="g4628">
              <defs
                 id="defs4621">
                <path
                   id="SVGID_1_"
                   d="M 14,1 H 5.5 C 4.7,1 4,1.7 4,2.5 v 19 C 4,22.3 4.7,23 5.5,23 h 13 C 19.3,23 20,22.3 20,21.5 V 7 Z"
                   inkscape:connector-curvature="0" />
              </defs>
              <clipPath
                 id="SVGID_2_">
                <use
                   xlink:href="#SVGID_1_"
                   overflow="visible"
                   id="use4623"
                   style="overflow:visible"
                   x="0"
                   y="0"
                   width="100%"
                   height="100%" />
              </clipPath>
              <path
                 clip-path="url(#SVGID_2_)"
                 d="M 14,1 H 5.5 C 4.7,1 4,1.7 4,2.5 v 19 C 4,22.3 4.7,23 5.5,23 h 13 C 19.3,23 20,22.3 20,21.5 V 7 L 16.5,4.5 Z"
                 id="path4626"
                 inkscape:connector-curvature="0"
                 style="fill:#0f9d58" />
            </g>
          </g>
        </g>
      </g>
      <g
         id="g4650">
        <g
           id="g4648">
          <g
             id="g4646">
            <g
               id="g4644">
              <defs
                 id="defs4637">
                <path
                   id="SVGID_3_"
                   d="M 14,1 H 5.5 C 4.7,1 4,1.7 4,2.5 v 19 C 4,22.3 4.7,23 5.5,23 h 13 C 19.3,23 20,22.3 20,21.5 V 7 Z"
                   inkscape:connector-curvature="0" />
              </defs>
              <clipPath
                 id="SVGID_4_">
                <use
                   xlink:href="#SVGID_3_"
                   overflow="visible"
                   id="use4639"
                   style="overflow:visible"
                   x="0"
                   y="0"
                   width="100%"
                   height="100%" />
              </clipPath>
              <path
                 clip-path="url(#SVGID_4_)"
                 d="M 8,11.8 V 19 h 8 V 11.8 Z M 11.5,18 H 9 v -1.2 h 2.5 z m 0,-2 H 9 v -1.2 h 2.5 z m 0,-2 H 9 v -1.2 h 2.5 z M 15,18 H 12.5 V 16.8 H 15 Z m 0,-2 H 12.5 V 14.8 H 15 Z m 0,-2 H 12.5 V 12.8 H 15 Z"
                 id="path4642"
                 inkscape:connector-curvature="0"
                 style="fill:#f1f1f1" />
            </g>
          </g>
        </g>
      </g>
      <g
         id="g4670">
        <g
           id="g4668">
          <g
             id="g4666">
            <g
               id="g4664">
              <defs
                 id="defs4653">
                <path
                   id="SVGID_5_"
                   d="M 14,1 H 5.5 C 4.7,1 4,1.7 4,2.5 v 19 C 4,22.3 4.7,23 5.5,23 h 13 C 19.3,23 20,22.3 20,21.5 V 7 Z"
                   inkscape:connector-curvature="0" />
              </defs>
              <clipPath
                 id="SVGID_6_">
                <use
                   xlink:href="#SVGID_5_"
                   overflow="visible"
                   id="use4655"
                   style="overflow:visible"
                   x="0"
                   y="0"
                   width="100%"
                   height="100%" />
              </clipPath>
              <g
                 clip-path="url(#SVGID_6_)"
                 id="g4662">
                <g
                   id="g4660">
                  <path
                     d="M 14,1 V 5.5 C 14,6.3 14.7,7 15.5,7 H 20 Z"
                     id="path4658"
                     inkscape:connector-curvature="0"
                     style="fill:#87ceac" />
                </g>
              </g>
            </g>
          </g>
        </g>
      </g>
    </g>
  </g>
</svg>
